<svg xmlns="http://www.w3.org/2000/svg" xmlns:xlink="http://www.w3.org/1999/xlink" width="500" zoomAndPan="magnify" viewBox="0 0 375 374.999991" height="500" preserveAspectRatio="xMidYMid meet" version="1.0"><path fill="#e28c1a" d="M 318.808594 67.101562 C 293.511719 40.488281 260.042969 21.6875 222.410156 14.824219 C 213.40625 13.238281 204.246094 12.402344 194.886719 12.285156 C 190.328125 12.246094 185.769531 12.207031 181.207031 12.167969 C 181.007812 12.167969 180.8125 12.167969 180.613281 12.167969 C 168.121094 12.839844 156.820312 19.703125 150.394531 30.414062 L 128.464844 67.0625 L 127.714844 68.332031 C 147.066406 68.332031 166.417969 68.332031 185.808594 68.332031 C 187.355469 68.292969 188.859375 68.253906 190.40625 68.253906 C 193.699219 68.253906 196.949219 68.371094 200.164062 68.648438 C 203.535156 68.886719 206.902344 69.246094 210.273438 69.800781 C 235.773438 74.003906 257.820312 85.03125 276.101562 103.199219 C 298.585938 125.53125 310.523438 152.980469 311.949219 185.308594 C 312.226562 191.890625 311.910156 198.515625 310.957031 205.019531 C 306.953125 232.3125 295.453125 255.675781 276.140625 274.554688 C 271.421875 279.15625 266.386719 283.359375 261.03125 287.089844 C 240.453125 301.488281 215.746094 309.222656 190.328125 309.460938 C 187.234375 309.5 184.140625 309.5 181.007812 309.5 C 170.421875 309.539062 159.832031 309.460938 149.285156 309.460938 C 148.175781 309.460938 147.460938 309.699219 146.828125 310.691406 C 146.746094 310.808594 146.667969 310.929688 146.589844 311.046875 C 137.945312 324.652344 129.21875 338.257812 120.535156 351.902344 C 117.917969 356.027344 115.261719 360.15625 112.644531 364.28125 C 112.40625 364.675781 112.246094 365.113281 111.96875 365.667969 C 112.761719 365.667969 113.320312 365.667969 113.914062 365.667969 C 134.652344 365.667969 155.390625 365.667969 176.171875 365.667969 C 180.613281 365.667969 185.09375 365.667969 189.535156 365.667969 C 208.886719 365.628906 228.160156 362.851562 246.558594 356.863281 C 257.425781 353.332031 267.773438 348.808594 277.570312 343.375 C 277.765625 343.257812 277.964844 343.175781 278.125 343.058594 C 278.996094 342.542969 279.867188 342.027344 280.742188 341.511719 C 294.820312 333.140625 307.667969 322.867188 318.890625 311.085938 C 349.066406 279.316406 367.546875 236.398438 367.546875 189.117188 C 367.546875 141.832031 348.949219 98.875 318.808594 67.101562 Z M 318.808594 67.101562 " fill-opacity="1" fill-rule="nonzero"/><path fill="#212121" d="M 128.109375 283.003906 C 128.785156 281.933594 129.972656 281.296875 131.242188 281.296875 C 150.714844 281.339844 170.222656 281.339844 189.695312 281.339844 C 197.464844 281.339844 205.160156 280.585938 212.734375 278.800781 C 262.578125 266.859375 294.542969 215.96875 280.1875 164.125 C 269.082031 123.984375 232.796875 96.613281 191.121094 96.574219 C 164.949219 96.574219 138.816406 96.574219 112.644531 96.574219 C 112.011719 96.574219 111.375 96.574219 110.742188 96.574219 L 108.640625 100.105469 L 77.828125 151.589844 C 115.421875 151.589844 153.050781 151.589844 190.644531 151.632812 C 193.261719 151.632812 195.878906 151.867188 198.457031 152.34375 C 224.195312 157.222656 237.042969 187.011719 222.648438 209.066406 C 215.589844 219.894531 203.296875 226.164062 190.328125 226.203125 C 157.058594 226.320312 123.789062 226.242188 90.476562 226.242188 C 89.960938 226.242188 89.484375 226.28125 88.96875 226.242188 C 88.175781 226.164062 87.703125 226.441406 87.304688 227.15625 C 86.671875 228.304688 85.957031 229.414062 85.28125 230.527344 C 83.578125 233.34375 81.910156 236.121094 80.207031 238.9375 C 69.222656 257.183594 58.277344 275.429688 47.292969 293.675781 C 43.804688 299.464844 40.3125 305.257812 36.863281 311.046875 C 26.277344 328.660156 15.726562 346.230469 5.140625 363.84375 C 4.824219 364.359375 4.585938 364.914062 4.1875 365.667969 C 5.140625 365.667969 5.8125 365.667969 6.449219 365.667969 C 28.695312 365.667969 50.941406 365.667969 73.1875 365.707031 C 74.773438 365.707031 75.605469 365.230469 76.480469 363.921875 C 82.109375 355.078125 87.742188 346.230469 93.371094 337.386719 C 98.964844 328.621094 104.554688 319.8125 110.144531 311.046875 C 114.667969 303.988281 119.148438 296.925781 123.667969 289.867188 C 125.214844 287.566406 126.683594 285.304688 128.109375 283.003906 Z M 128.109375 283.003906 " fill-opacity="1" fill-rule="nonzero"/></svg>